<svg xmlns="http://www.w3.org/2000/svg" xmlns:xlink="http://www.w3.org/1999/xlink" width="150" zoomAndPan="magnify" viewBox="0 0 112.5 37.5" height="50" preserveAspectRatio="xMidYMid meet" version="1.0"><defs><g/><clipPath id="f14131529e"><path d="M 2 8 L 27 8 L 27 30.503906 L 2 30.503906 Z M 2 8 " clip-rule="nonzero"/></clipPath><clipPath id="4598cf3eb4"><path d="M 6.523438 12.171875 L 22.808594 12.171875 L 22.808594 24.753906 L 6.523438 24.753906 Z M 6.523438 12.171875 " clip-rule="nonzero"/></clipPath><clipPath id="f5e79497a6"><path d="M 23 1 L 30.992188 1 L 30.992188 5 L 23 5 Z M 23 1 " clip-rule="nonzero"/></clipPath><clipPath id="a4b6fbbf9c"><rect x="0" width="31" y="0" height="6"/></clipPath></defs><g clip-path="url(#f14131529e)"><path fill="#5f6fff" d="M 26.46875 13.910156 C 25.121094 6.964844 16.65625 6.851562 14.570312 13.34375 C 12.480469 6.851562 4.019531 6.964844 2.667969 13.910156 C 1.441406 20.214844 14.570312 30.15625 14.570312 30.15625 C 14.570312 30.15625 27.695312 20.214844 26.46875 13.910156 Z M 26.46875 13.910156 " fill-opacity="1" fill-rule="nonzero"/></g><g clip-path="url(#4598cf3eb4)"><path fill="#ffffff" d="M 6.949219 21.351562 C 7.824219 21.351562 8.703125 21.351562 9.578125 21.351562 C 9.730469 21.351562 9.851562 21.25 9.894531 21.109375 C 10.441406 19.355469 10.992188 17.605469 11.539062 15.851562 C 11.328125 15.851562 11.117188 15.851562 10.90625 15.851562 C 11.5625 17.675781 12.21875 19.503906 12.875 21.328125 C 12.980469 21.621094 13.425781 21.664062 13.511719 21.328125 C 14.242188 18.445312 14.972656 15.558594 15.699219 12.675781 C 15.488281 12.675781 15.277344 12.675781 15.066406 12.675781 C 15.761719 16.617188 16.453125 20.5625 17.148438 24.503906 C 17.195312 24.78125 17.628906 24.832031 17.75 24.582031 C 18.277344 23.492188 18.804688 22.402344 19.332031 21.3125 C 19.464844 21.042969 18.921875 21.351562 19.277344 21.351562 C 19.625 21.351562 19.96875 21.351562 20.316406 21.351562 C 20.9375 21.351562 21.554688 21.351562 22.175781 21.351562 C 22.597656 21.351562 22.597656 20.695312 22.175781 20.695312 C 21.152344 20.695312 20.132812 20.695312 19.109375 20.695312 C 19 20.695312 18.875 20.753906 18.824219 20.855469 C 18.277344 21.988281 17.730469 23.121094 17.183594 24.253906 C 17.382812 24.277344 17.582031 24.304688 17.78125 24.332031 C 17.089844 20.386719 16.394531 16.445312 15.699219 12.5 C 15.644531 12.171875 15.144531 12.199219 15.066406 12.5 C 14.335938 15.386719 13.605469 18.269531 12.875 21.152344 C 13.085938 21.152344 13.300781 21.152344 13.511719 21.152344 C 12.851562 19.328125 12.195312 17.503906 11.539062 15.675781 C 11.429688 15.375 11.003906 15.355469 10.90625 15.675781 C 10.355469 17.429688 9.808594 19.183594 9.261719 20.933594 C 9.367188 20.855469 9.472656 20.773438 9.578125 20.695312 C 8.703125 20.695312 7.824219 20.695312 6.949219 20.695312 C 6.527344 20.695312 6.527344 21.351562 6.949219 21.351562 Z M 6.949219 21.351562 " fill-opacity="1" fill-rule="nonzero"/></g><g fill="#5f6fff" fill-opacity="1"><g transform="translate(27.493055, 20.576731)"><g><path d="M 2.65625 -1.5 L 6.609375 -1.5 L 6.609375 0 L 0.8125 0 L 0.8125 -9.015625 L 2.65625 -9.015625 Z M 2.65625 -1.5 "/></g></g></g><g fill="#5f6fff" fill-opacity="1"><g transform="translate(34.553148, 20.576731)"><g><path d="M 2.578125 0 L 0.78125 0 L 0.78125 -6.703125 L 2.578125 -6.703125 Z M 0.671875 -8.4375 C 0.671875 -8.707031 0.757812 -8.925781 0.9375 -9.09375 C 1.125 -9.269531 1.367188 -9.359375 1.671875 -9.359375 C 1.984375 -9.359375 2.226562 -9.269531 2.40625 -9.09375 C 2.59375 -8.925781 2.6875 -8.707031 2.6875 -8.4375 C 2.6875 -8.164062 2.59375 -7.941406 2.40625 -7.765625 C 2.21875 -7.597656 1.972656 -7.515625 1.671875 -7.515625 C 1.378906 -7.515625 1.140625 -7.597656 0.953125 -7.765625 C 0.765625 -7.941406 0.671875 -8.164062 0.671875 -8.4375 Z M 0.671875 -8.4375 "/></g></g></g><g fill="#5f6fff" fill-opacity="1"><g transform="translate(38.10716, 20.576731)"><g><path d="M 1.171875 0 L 1.171875 -5.390625 L 0.171875 -5.390625 L 0.171875 -6.703125 L 1.171875 -6.703125 L 1.171875 -7.265625 C 1.171875 -8.023438 1.382812 -8.609375 1.8125 -9.015625 C 2.25 -9.429688 2.859375 -9.640625 3.640625 -9.640625 C 3.890625 -9.640625 4.191406 -9.597656 4.546875 -9.515625 L 4.53125 -8.140625 C 4.382812 -8.171875 4.203125 -8.1875 3.984375 -8.1875 C 3.304688 -8.1875 2.96875 -7.867188 2.96875 -7.234375 L 2.96875 -6.703125 L 4.3125 -6.703125 L 4.3125 -5.390625 L 2.96875 -5.390625 L 2.96875 0 Z M 1.171875 0 "/></g></g></g><g fill="#5f6fff" fill-opacity="1"><g transform="translate(42.844313, 20.576731)"><g><path d="M 3.765625 0.125 C 2.785156 0.125 1.988281 -0.175781 1.375 -0.78125 C 0.757812 -1.382812 0.453125 -2.1875 0.453125 -3.1875 L 0.453125 -3.359375 C 0.453125 -4.035156 0.582031 -4.640625 0.84375 -5.171875 C 1.101562 -5.703125 1.46875 -6.109375 1.9375 -6.390625 C 2.414062 -6.679688 2.960938 -6.828125 3.578125 -6.828125 C 4.492188 -6.828125 5.210938 -6.535156 5.734375 -5.953125 C 6.265625 -5.378906 6.53125 -4.5625 6.53125 -3.5 L 6.53125 -2.765625 L 2.265625 -2.765625 C 2.316406 -2.328125 2.488281 -1.972656 2.78125 -1.703125 C 3.070312 -1.441406 3.441406 -1.3125 3.890625 -1.3125 C 4.578125 -1.3125 5.113281 -1.5625 5.5 -2.0625 L 6.390625 -1.078125 C 6.117188 -0.703125 5.753906 -0.40625 5.296875 -0.1875 C 4.835938 0.0195312 4.328125 0.125 3.765625 0.125 Z M 3.5625 -5.375 C 3.207031 -5.375 2.921875 -5.253906 2.703125 -5.015625 C 2.484375 -4.773438 2.34375 -4.429688 2.28125 -3.984375 L 4.765625 -3.984375 L 4.765625 -4.125 C 4.765625 -4.53125 4.660156 -4.835938 4.453125 -5.046875 C 4.242188 -5.265625 3.945312 -5.375 3.5625 -5.375 Z M 3.5625 -5.375 "/></g></g></g><g fill="#5f6fff" fill-opacity="1"><g transform="translate(49.892018, 20.576731)"><g><path d="M 5.484375 -2.359375 C 5.484375 -2.710938 5.359375 -2.984375 5.109375 -3.171875 C 4.859375 -3.359375 4.410156 -3.554688 3.765625 -3.765625 C 3.128906 -3.972656 2.625 -4.179688 2.25 -4.390625 C 1.21875 -4.941406 0.703125 -5.6875 0.703125 -6.625 C 0.703125 -7.113281 0.835938 -7.546875 1.109375 -7.921875 C 1.390625 -8.304688 1.785156 -8.601562 2.296875 -8.8125 C 2.816406 -9.03125 3.394531 -9.140625 4.03125 -9.140625 C 4.675781 -9.140625 5.25 -9.019531 5.75 -8.78125 C 6.257812 -8.550781 6.648438 -8.222656 6.921875 -7.796875 C 7.203125 -7.378906 7.34375 -6.898438 7.34375 -6.359375 L 5.484375 -6.359375 C 5.484375 -6.765625 5.351562 -7.082031 5.09375 -7.3125 C 4.832031 -7.539062 4.46875 -7.65625 4 -7.65625 C 3.550781 -7.65625 3.195312 -7.5625 2.9375 -7.375 C 2.6875 -7.1875 2.5625 -6.929688 2.5625 -6.609375 C 2.5625 -6.316406 2.707031 -6.070312 3 -5.875 C 3.300781 -5.675781 3.738281 -5.492188 4.3125 -5.328125 C 5.363281 -5.003906 6.128906 -4.609375 6.609375 -4.140625 C 7.097656 -3.671875 7.34375 -3.082031 7.34375 -2.375 C 7.34375 -1.59375 7.046875 -0.976562 6.453125 -0.53125 C 5.867188 -0.09375 5.078125 0.125 4.078125 0.125 C 3.378906 0.125 2.742188 0 2.171875 -0.25 C 1.609375 -0.507812 1.175781 -0.859375 0.875 -1.296875 C 0.570312 -1.742188 0.421875 -2.257812 0.421875 -2.84375 L 2.296875 -2.84375 C 2.296875 -1.84375 2.890625 -1.34375 4.078125 -1.34375 C 4.515625 -1.34375 4.859375 -1.429688 5.109375 -1.609375 C 5.359375 -1.796875 5.484375 -2.046875 5.484375 -2.359375 Z M 5.484375 -2.359375 "/></g></g></g><g fill="#5f6fff" fill-opacity="1"><g transform="translate(57.881285, 20.576731)"><g><path d="M 3.1875 -2.53125 L 4.421875 -6.703125 L 6.34375 -6.703125 L 3.65625 1.046875 L 3.5 1.390625 C 3.101562 2.265625 2.445312 2.703125 1.53125 2.703125 C 1.269531 2.703125 1.003906 2.664062 0.734375 2.59375 L 0.734375 1.234375 L 1 1.234375 C 1.34375 1.234375 1.597656 1.179688 1.765625 1.078125 C 1.929688 0.972656 2.0625 0.800781 2.15625 0.5625 L 2.359375 0.015625 L 0.015625 -6.703125 L 1.9375 -6.703125 Z M 3.1875 -2.53125 "/></g></g></g><g fill="#5f6fff" fill-opacity="1"><g transform="translate(64.439618, 20.576731)"><g><path d="M 2.328125 -6.703125 L 2.390625 -5.921875 C 2.867188 -6.523438 3.507812 -6.828125 4.3125 -6.828125 C 5.03125 -6.828125 5.5625 -6.617188 5.90625 -6.203125 C 6.25 -5.785156 6.425781 -5.160156 6.4375 -4.328125 L 6.4375 0 L 4.640625 0 L 4.640625 -4.28125 C 4.640625 -4.664062 4.554688 -4.941406 4.390625 -5.109375 C 4.234375 -5.285156 3.960938 -5.375 3.578125 -5.375 C 3.066406 -5.375 2.6875 -5.160156 2.4375 -4.734375 L 2.4375 0 L 0.65625 0 L 0.65625 -6.703125 Z M 2.328125 -6.703125 "/></g></g></g><g fill="#5f6fff" fill-opacity="1"><g transform="translate(71.735102, 20.576731)"><g><path d="M 3.46875 -1.3125 C 3.800781 -1.3125 4.070312 -1.398438 4.28125 -1.578125 C 4.488281 -1.765625 4.597656 -2.007812 4.609375 -2.3125 L 6.28125 -2.3125 C 6.28125 -1.863281 6.15625 -1.445312 5.90625 -1.0625 C 5.664062 -0.6875 5.332031 -0.394531 4.90625 -0.1875 C 4.488281 0.0195312 4.019531 0.125 3.5 0.125 C 2.539062 0.125 1.785156 -0.175781 1.234375 -0.78125 C 0.679688 -1.394531 0.40625 -2.238281 0.40625 -3.3125 L 0.40625 -3.4375 C 0.40625 -4.46875 0.679688 -5.289062 1.234375 -5.90625 C 1.785156 -6.519531 2.539062 -6.828125 3.5 -6.828125 C 4.332031 -6.828125 5 -6.585938 5.5 -6.109375 C 6.007812 -5.628906 6.269531 -4.992188 6.28125 -4.203125 L 4.609375 -4.203125 C 4.597656 -4.554688 4.488281 -4.835938 4.28125 -5.046875 C 4.070312 -5.265625 3.800781 -5.375 3.46875 -5.375 C 3.050781 -5.375 2.734375 -5.222656 2.515625 -4.921875 C 2.304688 -4.617188 2.203125 -4.125 2.203125 -3.4375 L 2.203125 -3.265625 C 2.203125 -2.566406 2.304688 -2.066406 2.515625 -1.765625 C 2.722656 -1.460938 3.039062 -1.3125 3.46875 -1.3125 Z M 3.46875 -1.3125 "/></g></g></g><g transform="matrix(1, 0, 0, 1, 28, 24)"><g clip-path="url(#a4b6fbbf9c)"><g fill="#000000" fill-opacity="1"><g transform="translate(0.967594, 4.047527)"><g><path d="M 1.25 -2.546875 C 1.664062 -2.546875 1.984375 -2.4375 2.203125 -2.21875 C 2.421875 -2.007812 2.53125 -1.695312 2.53125 -1.28125 C 2.53125 -0.851562 2.421875 -0.53125 2.203125 -0.3125 C 1.984375 -0.101562 1.664062 0 1.25 0 L 0.328125 0 L 0.328125 -2.546875 Z M 1.21875 -0.421875 C 1.476562 -0.421875 1.671875 -0.488281 1.796875 -0.625 C 1.929688 -0.757812 2 -0.976562 2 -1.28125 C 2 -1.570312 1.929688 -1.785156 1.796875 -1.921875 C 1.671875 -2.054688 1.476562 -2.125 1.21875 -2.125 L 0.84375 -2.125 L 0.84375 -0.421875 Z M 1.21875 -0.421875 "/></g></g><g transform="translate(3.697644, 4.047527)"><g><path d="M 0.75 0.03125 C 0.625 0.03125 0.515625 0.0078125 0.421875 -0.03125 C 0.335938 -0.0703125 0.269531 -0.132812 0.21875 -0.21875 C 0.164062 -0.3125 0.140625 -0.421875 0.140625 -0.546875 C 0.140625 -0.660156 0.164062 -0.753906 0.21875 -0.828125 C 0.269531 -0.910156 0.34375 -0.972656 0.4375 -1.015625 C 0.539062 -1.066406 0.675781 -1.109375 0.84375 -1.140625 C 0.957031 -1.160156 1.046875 -1.179688 1.109375 -1.203125 C 1.171875 -1.222656 1.210938 -1.242188 1.234375 -1.265625 C 1.253906 -1.296875 1.265625 -1.335938 1.265625 -1.390625 C 1.265625 -1.441406 1.242188 -1.484375 1.203125 -1.515625 C 1.160156 -1.554688 1.085938 -1.578125 0.984375 -1.578125 C 0.878906 -1.578125 0.773438 -1.550781 0.671875 -1.5 C 0.578125 -1.457031 0.492188 -1.394531 0.421875 -1.3125 L 0.390625 -1.3125 L 0.1875 -1.625 C 0.289062 -1.726562 0.410156 -1.8125 0.546875 -1.875 C 0.691406 -1.9375 0.847656 -1.96875 1.015625 -1.96875 C 1.265625 -1.96875 1.445312 -1.910156 1.5625 -1.796875 C 1.675781 -1.691406 1.734375 -1.539062 1.734375 -1.34375 L 1.734375 -0.5 C 1.734375 -0.414062 1.769531 -0.375 1.84375 -0.375 C 1.875 -0.375 1.90625 -0.378906 1.9375 -0.390625 L 1.953125 -0.375 L 2 -0.046875 C 1.96875 -0.0234375 1.925781 -0.0078125 1.875 0 C 1.832031 0.0078125 1.78125 0.015625 1.71875 0.015625 C 1.601562 0.015625 1.515625 -0.00390625 1.453125 -0.046875 C 1.390625 -0.0976562 1.34375 -0.171875 1.3125 -0.265625 L 1.28125 -0.265625 C 1.1875 -0.0664062 1.007812 0.03125 0.75 0.03125 Z M 0.90625 -0.328125 C 1.019531 -0.328125 1.109375 -0.363281 1.171875 -0.4375 C 1.242188 -0.507812 1.28125 -0.613281 1.28125 -0.75 L 1.28125 -0.953125 L 1.234375 -0.953125 C 1.210938 -0.929688 1.175781 -0.910156 1.125 -0.890625 C 1.082031 -0.878906 1.015625 -0.863281 0.921875 -0.84375 C 0.816406 -0.832031 0.738281 -0.804688 0.6875 -0.765625 C 0.644531 -0.722656 0.625 -0.660156 0.625 -0.578125 C 0.625 -0.492188 0.648438 -0.429688 0.703125 -0.390625 C 0.753906 -0.347656 0.820312 -0.328125 0.90625 -0.328125 Z M 0.90625 -0.328125 "/></g></g><g transform="translate(5.729025, 4.047527)"><g><path d="M 0.90625 0.03125 C 0.769531 0.03125 0.644531 0.015625 0.53125 -0.015625 C 0.425781 -0.046875 0.332031 -0.0859375 0.25 -0.140625 C 0.175781 -0.191406 0.125 -0.253906 0.09375 -0.328125 L 0.359375 -0.609375 L 0.390625 -0.609375 C 0.453125 -0.523438 0.523438 -0.460938 0.609375 -0.421875 C 0.703125 -0.378906 0.800781 -0.359375 0.90625 -0.359375 C 1 -0.359375 1.066406 -0.375 1.109375 -0.40625 C 1.160156 -0.4375 1.1875 -0.484375 1.1875 -0.546875 C 1.1875 -0.597656 1.171875 -0.640625 1.140625 -0.671875 C 1.109375 -0.703125 1.050781 -0.726562 0.96875 -0.75 L 0.71875 -0.8125 C 0.53125 -0.851562 0.390625 -0.921875 0.296875 -1.015625 C 0.210938 -1.109375 0.171875 -1.226562 0.171875 -1.375 C 0.171875 -1.5 0.195312 -1.601562 0.25 -1.6875 C 0.3125 -1.78125 0.398438 -1.847656 0.515625 -1.890625 C 0.628906 -1.941406 0.757812 -1.96875 0.90625 -1.96875 C 1.082031 -1.96875 1.222656 -1.941406 1.328125 -1.890625 C 1.441406 -1.835938 1.535156 -1.769531 1.609375 -1.6875 L 1.34375 -1.40625 L 1.3125 -1.40625 C 1.257812 -1.46875 1.195312 -1.507812 1.125 -1.53125 C 1.0625 -1.5625 0.988281 -1.578125 0.90625 -1.578125 C 0.71875 -1.578125 0.625 -1.519531 0.625 -1.40625 C 0.625 -1.351562 0.640625 -1.3125 0.671875 -1.28125 C 0.703125 -1.25 0.765625 -1.222656 0.859375 -1.203125 L 1.09375 -1.15625 C 1.289062 -1.113281 1.429688 -1.046875 1.515625 -0.953125 C 1.609375 -0.859375 1.65625 -0.734375 1.65625 -0.578125 C 1.65625 -0.453125 1.625 -0.34375 1.5625 -0.25 C 1.507812 -0.15625 1.425781 -0.0820312 1.3125 -0.03125 C 1.195312 0.0078125 1.0625 0.03125 0.90625 0.03125 Z M 0.90625 0.03125 "/></g></g><g transform="translate(7.505392, 4.047527)"><g><path d="M 0.28125 0 L 0.28125 -2.703125 L 0.765625 -2.703125 L 0.765625 -1.671875 L 0.796875 -1.671875 C 0.859375 -1.765625 0.9375 -1.835938 1.03125 -1.890625 C 1.125 -1.941406 1.238281 -1.96875 1.375 -1.96875 C 1.800781 -1.96875 2.015625 -1.722656 2.015625 -1.234375 L 2.015625 0 L 1.53125 0 L 1.53125 -1.171875 C 1.53125 -1.304688 1.503906 -1.40625 1.453125 -1.46875 C 1.398438 -1.53125 1.316406 -1.5625 1.203125 -1.5625 C 1.066406 -1.5625 0.957031 -1.515625 0.875 -1.421875 C 0.800781 -1.328125 0.765625 -1.1875 0.765625 -1 L 0.765625 0 Z M 0.28125 0 "/></g></g><g transform="translate(9.762094, 4.047527)"><g><path d="M 1.34375 0.03125 C 1.101562 0.03125 0.921875 -0.0546875 0.796875 -0.234375 L 0.765625 -0.234375 L 0.765625 0 L 0.28125 0 L 0.28125 -2.703125 L 0.765625 -2.703125 L 0.765625 -1.703125 L 0.796875 -1.6875 C 0.859375 -1.78125 0.9375 -1.847656 1.03125 -1.890625 C 1.125 -1.941406 1.234375 -1.96875 1.359375 -1.96875 C 1.515625 -1.96875 1.648438 -1.929688 1.765625 -1.859375 C 1.878906 -1.785156 1.96875 -1.671875 2.03125 -1.515625 C 2.101562 -1.367188 2.140625 -1.1875 2.140625 -0.96875 C 2.140625 -0.75 2.101562 -0.5625 2.03125 -0.40625 C 1.96875 -0.257812 1.875 -0.148438 1.75 -0.078125 C 1.632812 -0.00390625 1.5 0.03125 1.34375 0.03125 Z M 1.203125 -0.375 C 1.335938 -0.375 1.441406 -0.421875 1.515625 -0.515625 C 1.597656 -0.609375 1.640625 -0.757812 1.640625 -0.96875 C 1.640625 -1.164062 1.597656 -1.3125 1.515625 -1.40625 C 1.441406 -1.5 1.335938 -1.546875 1.203125 -1.546875 C 1.066406 -1.546875 0.957031 -1.5 0.875 -1.40625 C 0.789062 -1.3125 0.75 -1.164062 0.75 -0.96875 C 0.75 -0.769531 0.789062 -0.617188 0.875 -0.515625 C 0.957031 -0.421875 1.066406 -0.375 1.203125 -0.375 Z M 1.203125 -0.375 "/></g></g><g transform="translate(12.069449, 4.047527)"><g><path d="M 1.125 0.03125 C 0.9375 0.03125 0.769531 -0.00390625 0.625 -0.078125 C 0.476562 -0.160156 0.363281 -0.273438 0.28125 -0.421875 C 0.207031 -0.566406 0.171875 -0.75 0.171875 -0.96875 C 0.171875 -1.175781 0.207031 -1.351562 0.28125 -1.5 C 0.363281 -1.65625 0.476562 -1.769531 0.625 -1.84375 C 0.769531 -1.925781 0.9375 -1.96875 1.125 -1.96875 C 1.3125 -1.96875 1.472656 -1.925781 1.609375 -1.84375 C 1.753906 -1.769531 1.863281 -1.65625 1.9375 -1.5 C 2.019531 -1.351562 2.0625 -1.175781 2.0625 -0.96875 C 2.0625 -0.75 2.019531 -0.566406 1.9375 -0.421875 C 1.863281 -0.273438 1.753906 -0.160156 1.609375 -0.078125 C 1.472656 -0.00390625 1.3125 0.03125 1.125 0.03125 Z M 1.125 -0.375 C 1.414062 -0.375 1.5625 -0.570312 1.5625 -0.96875 C 1.5625 -1.164062 1.523438 -1.3125 1.453125 -1.40625 C 1.378906 -1.5 1.269531 -1.546875 1.125 -1.546875 C 0.820312 -1.546875 0.671875 -1.351562 0.671875 -0.96875 C 0.671875 -0.570312 0.820312 -0.375 1.125 -0.375 Z M 1.125 -0.375 "/></g></g><g transform="translate(14.308685, 4.047527)"><g><path d="M 0.75 0.03125 C 0.625 0.03125 0.515625 0.0078125 0.421875 -0.03125 C 0.335938 -0.0703125 0.269531 -0.132812 0.21875 -0.21875 C 0.164062 -0.3125 0.140625 -0.421875 0.140625 -0.546875 C 0.140625 -0.660156 0.164062 -0.753906 0.21875 -0.828125 C 0.269531 -0.910156 0.34375 -0.972656 0.4375 -1.015625 C 0.539062 -1.066406 0.675781 -1.109375 0.84375 -1.140625 C 0.957031 -1.160156 1.046875 -1.179688 1.109375 -1.203125 C 1.171875 -1.222656 1.210938 -1.242188 1.234375 -1.265625 C 1.253906 -1.296875 1.265625 -1.335938 1.265625 -1.390625 C 1.265625 -1.441406 1.242188 -1.484375 1.203125 -1.515625 C 1.160156 -1.554688 1.085938 -1.578125 0.984375 -1.578125 C 0.878906 -1.578125 0.773438 -1.550781 0.671875 -1.5 C 0.578125 -1.457031 0.492188 -1.394531 0.421875 -1.3125 L 0.390625 -1.3125 L 0.1875 -1.625 C 0.289062 -1.726562 0.410156 -1.8125 0.546875 -1.875 C 0.691406 -1.9375 0.847656 -1.96875 1.015625 -1.96875 C 1.265625 -1.96875 1.445312 -1.910156 1.5625 -1.796875 C 1.675781 -1.691406 1.734375 -1.539062 1.734375 -1.34375 L 1.734375 -0.5 C 1.734375 -0.414062 1.769531 -0.375 1.84375 -0.375 C 1.875 -0.375 1.90625 -0.378906 1.9375 -0.390625 L 1.953125 -0.375 L 2 -0.046875 C 1.96875 -0.0234375 1.925781 -0.0078125 1.875 0 C 1.832031 0.0078125 1.78125 0.015625 1.71875 0.015625 C 1.601562 0.015625 1.515625 -0.00390625 1.453125 -0.046875 C 1.390625 -0.0976562 1.34375 -0.171875 1.3125 -0.265625 L 1.28125 -0.265625 C 1.1875 -0.0664062 1.007812 0.03125 0.75 0.03125 Z M 0.90625 -0.328125 C 1.019531 -0.328125 1.109375 -0.363281 1.171875 -0.4375 C 1.242188 -0.507812 1.28125 -0.613281 1.28125 -0.75 L 1.28125 -0.953125 L 1.234375 -0.953125 C 1.210938 -0.929688 1.175781 -0.910156 1.125 -0.890625 C 1.082031 -0.878906 1.015625 -0.863281 0.921875 -0.84375 C 0.816406 -0.832031 0.738281 -0.804688 0.6875 -0.765625 C 0.644531 -0.722656 0.625 -0.660156 0.625 -0.578125 C 0.625 -0.492188 0.648438 -0.429688 0.703125 -0.390625 C 0.753906 -0.347656 0.820312 -0.328125 0.90625 -0.328125 Z M 0.90625 -0.328125 "/></g></g><g transform="translate(16.340066, 4.047527)"><g><path d="M 0.28125 0 L 0.28125 -1.921875 L 0.75 -1.921875 L 0.75 -1.640625 L 0.78125 -1.640625 C 0.832031 -1.742188 0.894531 -1.816406 0.96875 -1.859375 C 1.039062 -1.910156 1.132812 -1.9375 1.25 -1.9375 C 1.351562 -1.9375 1.4375 -1.921875 1.5 -1.890625 L 1.40625 -1.46875 L 1.375 -1.46875 C 1.34375 -1.476562 1.3125 -1.484375 1.28125 -1.484375 C 1.25 -1.492188 1.210938 -1.5 1.171875 -1.5 C 1.035156 -1.5 0.929688 -1.453125 0.859375 -1.359375 C 0.796875 -1.265625 0.765625 -1.113281 0.765625 -0.90625 L 0.765625 0 Z M 0.28125 0 "/></g></g></g><g fill="#000000" fill-opacity="1"><g transform="translate(17.800285, 4.047527)"><g><path d="M 0.953125 0.03125 C 0.796875 0.03125 0.660156 -0.00390625 0.546875 -0.078125 C 0.429688 -0.148438 0.335938 -0.257812 0.265625 -0.40625 C 0.203125 -0.5625 0.171875 -0.75 0.171875 -0.96875 C 0.171875 -1.1875 0.203125 -1.367188 0.265625 -1.515625 C 0.335938 -1.660156 0.429688 -1.769531 0.546875 -1.84375 C 0.671875 -1.925781 0.816406 -1.96875 0.984375 -1.96875 C 1.097656 -1.96875 1.195312 -1.945312 1.28125 -1.90625 C 1.375 -1.863281 1.453125 -1.796875 1.515625 -1.703125 L 1.546875 -1.71875 L 1.546875 -2.703125 L 2.03125 -2.703125 L 2.03125 0 L 1.546875 0 L 1.546875 -0.25 L 1.515625 -0.25 C 1.460938 -0.164062 1.390625 -0.0976562 1.296875 -0.046875 C 1.203125 0.00390625 1.085938 0.03125 0.953125 0.03125 Z M 1.109375 -0.375 C 1.242188 -0.375 1.347656 -0.421875 1.421875 -0.515625 C 1.503906 -0.617188 1.546875 -0.769531 1.546875 -0.96875 C 1.546875 -1.164062 1.503906 -1.3125 1.421875 -1.40625 C 1.347656 -1.5 1.242188 -1.546875 1.109375 -1.546875 C 0.960938 -1.546875 0.851562 -1.5 0.78125 -1.40625 C 0.707031 -1.3125 0.671875 -1.164062 0.671875 -0.96875 C 0.671875 -0.757812 0.707031 -0.609375 0.78125 -0.515625 C 0.851562 -0.421875 0.960938 -0.375 1.109375 -0.375 Z M 1.109375 -0.375 "/></g></g><g transform="translate(20.109387, 4.047527)"><g/></g><g transform="translate(20.95303, 4.047527)"><g><path d="M 1.3125 -2.546875 C 1.5 -2.546875 1.65625 -2.515625 1.78125 -2.453125 C 1.914062 -2.390625 2.015625 -2.296875 2.078125 -2.171875 C 2.148438 -2.046875 2.1875 -1.90625 2.1875 -1.75 C 2.1875 -1.59375 2.148438 -1.453125 2.078125 -1.328125 C 2.015625 -1.210938 1.914062 -1.117188 1.78125 -1.046875 C 1.65625 -0.984375 1.5 -0.953125 1.3125 -0.953125 L 0.84375 -0.953125 L 0.84375 0 L 0.328125 0 L 0.328125 -2.546875 Z M 1.25 -1.359375 C 1.53125 -1.359375 1.671875 -1.488281 1.671875 -1.75 C 1.671875 -2.019531 1.53125 -2.15625 1.25 -2.15625 L 0.84375 -2.15625 L 0.84375 -1.359375 Z M 1.25 -1.359375 "/></g></g></g><g clip-path="url(#f5e79497a6)"><g fill="#000000" fill-opacity="1"><g transform="translate(23.192265, 4.047527)"><g><path d="M 0.75 0.03125 C 0.625 0.03125 0.515625 0.0078125 0.421875 -0.03125 C 0.335938 -0.0703125 0.269531 -0.132812 0.21875 -0.21875 C 0.164062 -0.3125 0.140625 -0.421875 0.140625 -0.546875 C 0.140625 -0.660156 0.164062 -0.753906 0.21875 -0.828125 C 0.269531 -0.910156 0.34375 -0.972656 0.4375 -1.015625 C 0.539062 -1.066406 0.675781 -1.109375 0.84375 -1.140625 C 0.957031 -1.160156 1.046875 -1.179688 1.109375 -1.203125 C 1.171875 -1.222656 1.210938 -1.242188 1.234375 -1.265625 C 1.253906 -1.296875 1.265625 -1.335938 1.265625 -1.390625 C 1.265625 -1.441406 1.242188 -1.484375 1.203125 -1.515625 C 1.160156 -1.554688 1.085938 -1.578125 0.984375 -1.578125 C 0.878906 -1.578125 0.773438 -1.550781 0.671875 -1.5 C 0.578125 -1.457031 0.492188 -1.394531 0.421875 -1.3125 L 0.390625 -1.3125 L 0.1875 -1.625 C 0.289062 -1.726562 0.410156 -1.8125 0.546875 -1.875 C 0.691406 -1.9375 0.847656 -1.96875 1.015625 -1.96875 C 1.265625 -1.96875 1.445312 -1.910156 1.5625 -1.796875 C 1.675781 -1.691406 1.734375 -1.539062 1.734375 -1.34375 L 1.734375 -0.5 C 1.734375 -0.414062 1.769531 -0.375 1.84375 -0.375 C 1.875 -0.375 1.90625 -0.378906 1.9375 -0.390625 L 1.953125 -0.375 L 2 -0.046875 C 1.96875 -0.0234375 1.925781 -0.0078125 1.875 0 C 1.832031 0.0078125 1.78125 0.015625 1.71875 0.015625 C 1.601562 0.015625 1.515625 -0.00390625 1.453125 -0.046875 C 1.390625 -0.0976562 1.34375 -0.171875 1.3125 -0.265625 L 1.28125 -0.265625 C 1.1875 -0.0664062 1.007812 0.03125 0.75 0.03125 Z M 0.90625 -0.328125 C 1.019531 -0.328125 1.109375 -0.363281 1.171875 -0.4375 C 1.242188 -0.507812 1.28125 -0.613281 1.28125 -0.75 L 1.28125 -0.953125 L 1.234375 -0.953125 C 1.210938 -0.929688 1.175781 -0.910156 1.125 -0.890625 C 1.082031 -0.878906 1.015625 -0.863281 0.921875 -0.84375 C 0.816406 -0.832031 0.738281 -0.804688 0.6875 -0.765625 C 0.644531 -0.722656 0.625 -0.660156 0.625 -0.578125 C 0.625 -0.492188 0.648438 -0.429688 0.703125 -0.390625 C 0.753906 -0.347656 0.820312 -0.328125 0.90625 -0.328125 Z M 0.90625 -0.328125 "/></g></g><g transform="translate(25.223647, 4.047527)"><g><path d="M 0.28125 0 L 0.28125 -1.921875 L 0.75 -1.921875 L 0.75 -1.640625 L 0.78125 -1.640625 C 0.894531 -1.859375 1.085938 -1.96875 1.359375 -1.96875 C 1.585938 -1.96875 1.753906 -1.90625 1.859375 -1.78125 C 1.960938 -1.65625 2.015625 -1.476562 2.015625 -1.25 L 2.015625 0 L 1.53125 0 L 1.53125 -1.1875 C 1.53125 -1.320312 1.503906 -1.414062 1.453125 -1.46875 C 1.398438 -1.53125 1.316406 -1.5625 1.203125 -1.5625 C 1.066406 -1.5625 0.957031 -1.515625 0.875 -1.421875 C 0.800781 -1.328125 0.765625 -1.1875 0.765625 -1 L 0.765625 0 Z M 0.28125 0 "/></g></g><g transform="translate(27.480348, 4.047527)"><g><path d="M 1.90625 -0.859375 L 0.671875 -0.859375 C 0.679688 -0.691406 0.726562 -0.566406 0.8125 -0.484375 C 0.894531 -0.410156 1.003906 -0.375 1.140625 -0.375 C 1.253906 -0.375 1.34375 -0.394531 1.40625 -0.4375 C 1.476562 -0.476562 1.535156 -0.539062 1.578125 -0.625 L 1.609375 -0.625 L 1.9375 -0.421875 C 1.875 -0.285156 1.773438 -0.175781 1.640625 -0.09375 C 1.515625 -0.0078125 1.347656 0.03125 1.140625 0.03125 C 0.941406 0.03125 0.769531 -0.00390625 0.625 -0.078125 C 0.476562 -0.148438 0.363281 -0.257812 0.28125 -0.40625 C 0.207031 -0.5625 0.171875 -0.75 0.171875 -0.96875 C 0.171875 -1.1875 0.210938 -1.367188 0.296875 -1.515625 C 0.378906 -1.660156 0.488281 -1.769531 0.625 -1.84375 C 0.769531 -1.925781 0.929688 -1.96875 1.109375 -1.96875 C 1.378906 -1.96875 1.585938 -1.894531 1.734375 -1.75 C 1.878906 -1.601562 1.953125 -1.390625 1.953125 -1.109375 C 1.953125 -1.003906 1.945312 -0.925781 1.9375 -0.875 Z M 1.484375 -1.171875 C 1.484375 -1.316406 1.453125 -1.421875 1.390625 -1.484375 C 1.328125 -1.554688 1.234375 -1.59375 1.109375 -1.59375 C 0.859375 -1.59375 0.710938 -1.453125 0.671875 -1.171875 Z M 1.484375 -1.171875 "/></g></g><g transform="translate(29.57461, 4.047527)"><g><path d="M 0.796875 0.03125 C 0.628906 0.03125 0.5 -0.015625 0.40625 -0.109375 C 0.3125 -0.203125 0.265625 -0.34375 0.265625 -0.53125 L 0.265625 -2.703125 L 0.75 -2.703125 L 0.75 -0.546875 C 0.75 -0.429688 0.796875 -0.375 0.890625 -0.375 C 0.921875 -0.375 0.953125 -0.378906 0.984375 -0.390625 L 1.015625 -0.375 L 1.046875 -0.015625 C 1.023438 0.00390625 0.988281 0.015625 0.9375 0.015625 C 0.894531 0.0234375 0.847656 0.03125 0.796875 0.03125 Z M 0.796875 0.03125 "/></g></g></g></g></g></g></svg>