<svg xmlns="http://www.w3.org/2000/svg" xmlns:xlink="http://www.w3.org/1999/xlink" width="150" zoomAndPan="magnify" viewBox="0 0 112.5 37.5" height="50" preserveAspectRatio="xMidYMid meet" version="1.0"><defs><g/><clipPath id="1ebe2b08f3"><path d="M 5 13 L 30 13 L 30 35.902344 L 5 35.902344 Z M 5 13 " clip-rule="nonzero"/></clipPath><clipPath id="312e22090e"><path d="M 9.039062 19.136719 L 25.324219 19.136719 L 25.324219 31.71875 L 9.039062 31.71875 Z M 9.039062 19.136719 " clip-rule="nonzero"/></clipPath></defs><g clip-path="url(#1ebe2b08f3)"><path fill="#5f6fff" d="M 29.226562 19.3125 C 27.875 12.367188 19.414062 12.25 17.324219 18.742188 C 15.238281 12.25 6.773438 12.367188 5.425781 19.3125 C 4.199219 25.613281 17.324219 35.554688 17.324219 35.554688 C 17.324219 35.554688 30.453125 25.613281 29.226562 19.3125 Z M 29.226562 19.3125 " fill-opacity="1" fill-rule="nonzero"/></g><g clip-path="url(#312e22090e)"><path fill="#ffffff" d="M 9.464844 28.316406 C 10.34375 28.316406 11.21875 28.316406 12.09375 28.316406 C 12.246094 28.316406 12.367188 28.214844 12.410156 28.074219 C 12.960938 26.324219 13.507812 24.570312 14.054688 22.816406 C 13.84375 22.816406 13.632812 22.816406 13.421875 22.816406 C 14.078125 24.644531 14.734375 26.46875 15.394531 28.292969 C 15.496094 28.585938 15.941406 28.628906 16.027344 28.292969 C 16.757812 25.410156 17.488281 22.527344 18.21875 19.640625 C 18.007812 19.640625 17.796875 19.640625 17.582031 19.640625 C 18.277344 23.585938 18.972656 27.527344 19.664062 31.472656 C 19.714844 31.746094 20.144531 31.796875 20.265625 31.550781 C 20.792969 30.460938 21.320312 29.371094 21.847656 28.277344 C 21.980469 28.007812 21.441406 28.316406 21.792969 28.316406 C 22.140625 28.316406 22.488281 28.316406 22.832031 28.316406 C 23.453125 28.316406 24.070312 28.316406 24.691406 28.316406 C 25.117188 28.316406 25.117188 27.660156 24.691406 27.660156 C 23.667969 27.660156 22.648438 27.660156 21.625 27.660156 C 21.515625 27.660156 21.390625 27.71875 21.339844 27.824219 C 20.792969 28.953125 20.246094 30.085938 19.699219 31.21875 C 19.898438 31.246094 20.097656 31.269531 20.300781 31.296875 C 19.605469 27.351562 18.910156 23.410156 18.21875 19.464844 C 18.160156 19.136719 17.660156 19.164062 17.582031 19.464844 C 16.855469 22.351562 16.125 25.234375 15.394531 28.121094 C 15.605469 28.121094 15.816406 28.121094 16.027344 28.121094 C 15.371094 26.292969 14.710938 24.46875 14.054688 22.644531 C 13.945312 22.339844 13.523438 22.320312 13.421875 22.644531 C 12.875 24.394531 12.324219 26.148438 11.777344 27.902344 C 11.882812 27.820312 11.988281 27.738281 12.09375 27.660156 C 11.21875 27.660156 10.34375 27.660156 9.464844 27.660156 C 9.042969 27.660156 9.042969 28.316406 9.464844 28.316406 Z M 9.464844 28.316406 " fill-opacity="1" fill-rule="nonzero"/></g><g fill="#5f6fff" fill-opacity="1"><g transform="translate(31.272138, 32.614348)"><g><path d="M 4.25 -12.96875 L 4.25 -2.140625 L 10.078125 -2.140625 L 10.078125 0 L 1.6875 0 L 1.6875 -12.96875 Z M 4.25 -12.96875 "/></g></g></g><g fill="#5f6fff" fill-opacity="1"><g transform="translate(42.048192, 32.614348)"><g><path d="M 2.640625 -10.953125 C 2.191406 -10.953125 1.828125 -11.085938 1.546875 -11.359375 C 1.273438 -11.628906 1.140625 -11.976562 1.140625 -12.40625 C 1.140625 -12.820312 1.273438 -13.164062 1.546875 -13.4375 C 1.828125 -13.707031 2.191406 -13.84375 2.640625 -13.84375 C 2.929688 -13.84375 3.191406 -13.78125 3.421875 -13.65625 C 3.648438 -13.53125 3.828125 -13.359375 3.953125 -13.140625 C 4.085938 -12.929688 4.15625 -12.6875 4.15625 -12.40625 C 4.15625 -12.125 4.085938 -11.875 3.953125 -11.65625 C 3.828125 -11.4375 3.648438 -11.265625 3.421875 -11.140625 C 3.191406 -11.015625 2.929688 -10.953125 2.640625 -10.953125 Z M 1.40625 0 L 1.40625 -9.78125 L 3.875 -9.78125 L 3.875 0 Z M 1.40625 0 "/></g></g></g><g fill="#5f6fff" fill-opacity="1"><g transform="translate(47.590325, 32.614348)"><g><path d="M 1.71875 0 L 1.71875 -7.84375 L 0.328125 -7.84375 L 0.328125 -9.796875 L 1.71875 -9.796875 C 1.613281 -10.210938 1.5625 -10.597656 1.5625 -10.953125 C 1.5625 -11.578125 1.703125 -12.109375 1.984375 -12.546875 C 2.265625 -12.992188 2.671875 -13.332031 3.203125 -13.5625 C 3.742188 -13.789062 4.378906 -13.90625 5.109375 -13.90625 C 6.191406 -13.90625 7 -13.71875 7.53125 -13.34375 L 6.953125 -11.53125 L 6.765625 -11.5 C 6.398438 -11.757812 5.929688 -11.890625 5.359375 -11.890625 C 4.910156 -11.890625 4.578125 -11.78125 4.359375 -11.5625 C 4.140625 -11.34375 4.03125 -11.050781 4.03125 -10.6875 C 4.03125 -10.519531 4.039062 -10.367188 4.0625 -10.234375 C 4.082031 -10.109375 4.117188 -9.960938 4.171875 -9.796875 L 6.96875 -9.796875 L 6.96875 -7.84375 L 4.171875 -7.84375 L 4.171875 0 Z M 1.71875 0 "/></g></g></g><g fill="#5f6fff" fill-opacity="1"><g transform="translate(54.92441, 32.614348)"><g><path d="M 9.671875 -4.34375 L 3.375 -4.34375 C 3.445312 -3.488281 3.691406 -2.867188 4.109375 -2.484375 C 4.523438 -2.097656 5.085938 -1.90625 5.796875 -1.90625 C 6.359375 -1.90625 6.8125 -2.007812 7.15625 -2.21875 C 7.507812 -2.425781 7.796875 -2.742188 8.015625 -3.171875 L 8.203125 -3.171875 L 9.828125 -2.125 C 9.515625 -1.4375 9.035156 -0.878906 8.390625 -0.453125 C 7.742188 -0.0234375 6.878906 0.1875 5.796875 0.1875 C 4.785156 0.1875 3.910156 -0.00390625 3.171875 -0.390625 C 2.441406 -0.773438 1.875 -1.347656 1.46875 -2.109375 C 1.070312 -2.867188 0.875 -3.796875 0.875 -4.890625 C 0.875 -6.003906 1.082031 -6.941406 1.5 -7.703125 C 1.925781 -8.460938 2.492188 -9.03125 3.203125 -9.40625 C 3.921875 -9.78125 4.726562 -9.96875 5.625 -9.96875 C 7.007812 -9.96875 8.066406 -9.597656 8.796875 -8.859375 C 9.535156 -8.128906 9.90625 -7.054688 9.90625 -5.640625 C 9.90625 -5.128906 9.890625 -4.734375 9.859375 -4.453125 Z M 7.5625 -5.921875 C 7.539062 -6.671875 7.367188 -7.210938 7.046875 -7.546875 C 6.722656 -7.890625 6.25 -8.0625 5.625 -8.0625 C 4.382812 -8.0625 3.65625 -7.347656 3.4375 -5.921875 Z M 7.5625 -5.921875 "/></g></g></g><g fill="#5f6fff" fill-opacity="1"><g transform="translate(65.833535, 32.614348)"><g><path d="M 5.75 0.1875 C 4.851562 0.1875 4.050781 0.078125 3.34375 -0.140625 C 2.644531 -0.367188 2.0625 -0.660156 1.59375 -1.015625 C 1.125 -1.378906 0.769531 -1.773438 0.53125 -2.203125 L 1.9375 -3.9375 L 2.15625 -3.9375 C 2.539062 -3.351562 3.035156 -2.890625 3.640625 -2.546875 C 4.242188 -2.203125 4.945312 -2.03125 5.75 -2.03125 C 6.4375 -2.03125 6.953125 -2.175781 7.296875 -2.46875 C 7.648438 -2.757812 7.828125 -3.160156 7.828125 -3.671875 C 7.828125 -3.972656 7.769531 -4.226562 7.65625 -4.4375 C 7.539062 -4.644531 7.351562 -4.820312 7.09375 -4.96875 C 6.832031 -5.113281 6.484375 -5.238281 6.046875 -5.34375 L 4.375 -5.734375 C 3.207031 -5.992188 2.335938 -6.429688 1.765625 -7.046875 C 1.191406 -7.671875 0.90625 -8.476562 0.90625 -9.46875 C 0.90625 -10.195312 1.085938 -10.835938 1.453125 -11.390625 C 1.828125 -11.953125 2.363281 -12.382812 3.0625 -12.6875 C 3.757812 -13 4.597656 -13.15625 5.578125 -13.15625 C 6.578125 -13.15625 7.429688 -13.023438 8.140625 -12.765625 C 8.859375 -12.503906 9.460938 -12.097656 9.953125 -11.546875 L 8.6875 -9.8125 L 8.46875 -9.8125 C 8.101562 -10.195312 7.679688 -10.484375 7.203125 -10.671875 C 6.734375 -10.867188 6.191406 -10.96875 5.578125 -10.96875 C 4.878906 -10.96875 4.34375 -10.84375 3.96875 -10.59375 C 3.601562 -10.34375 3.421875 -10 3.421875 -9.5625 C 3.421875 -9.15625 3.550781 -8.828125 3.8125 -8.578125 C 4.070312 -8.335938 4.515625 -8.148438 5.140625 -8.015625 L 6.84375 -7.671875 C 8.101562 -7.398438 9.015625 -6.945312 9.578125 -6.3125 C 10.148438 -5.675781 10.4375 -4.847656 10.4375 -3.828125 C 10.4375 -3.015625 10.257812 -2.304688 9.90625 -1.703125 C 9.5625 -1.109375 9.035156 -0.644531 8.328125 -0.3125 C 7.628906 0.0195312 6.769531 0.1875 5.75 0.1875 Z M 5.75 0.1875 "/></g></g></g><g fill="#5f6fff" fill-opacity="1"><g transform="translate(77.248305, 32.614348)"><g><path d="M 2.171875 4.15625 C 1.742188 4.15625 1.359375 4.117188 1.015625 4.046875 C 0.679688 3.984375 0.40625 3.898438 0.1875 3.796875 L 0.578125 1.8125 L 0.75 1.75 C 0.894531 1.832031 1.078125 1.894531 1.296875 1.9375 C 1.515625 1.988281 1.738281 2.015625 1.96875 2.015625 C 2.363281 2.015625 2.691406 1.960938 2.953125 1.859375 C 3.222656 1.753906 3.445312 1.582031 3.625 1.34375 C 3.8125 1.101562 3.972656 0.769531 4.109375 0.34375 L 0.21875 -9.78125 L 2.78125 -9.78125 L 5.21875 -2.984375 L 5.4375 -2.984375 L 7.796875 -9.78125 L 10.296875 -9.78125 L 6.375 0.609375 C 6.0625 1.453125 5.71875 2.128906 5.34375 2.640625 C 4.96875 3.148438 4.519531 3.53125 4 3.78125 C 3.488281 4.03125 2.878906 4.15625 2.171875 4.15625 Z M 2.171875 4.15625 "/></g></g></g><g fill="#5f6fff" fill-opacity="1"><g transform="translate(88.024359, 32.614348)"><g><path d="M 1.40625 0 L 1.40625 -9.78125 L 3.765625 -9.78125 L 3.765625 -8.34375 L 3.953125 -8.3125 C 4.566406 -9.414062 5.554688 -9.96875 6.921875 -9.96875 C 8.046875 -9.96875 8.875 -9.660156 9.40625 -9.046875 C 9.9375 -8.429688 10.203125 -7.535156 10.203125 -6.359375 L 10.203125 0 L 7.75 0 L 7.75 -6.0625 C 7.75 -6.707031 7.617188 -7.171875 7.359375 -7.453125 C 7.097656 -7.742188 6.679688 -7.890625 6.109375 -7.890625 C 5.398438 -7.890625 4.847656 -7.660156 4.453125 -7.203125 C 4.066406 -6.753906 3.875 -6.039062 3.875 -5.0625 L 3.875 0 Z M 1.40625 0 "/></g></g></g><g fill="#5f6fff" fill-opacity="1"><g transform="translate(99.758486, 32.614348)"><g><path d="M 5.703125 0.1875 C 4.753906 0.1875 3.914062 -0.0078125 3.1875 -0.40625 C 2.46875 -0.800781 1.898438 -1.378906 1.484375 -2.140625 C 1.078125 -2.898438 0.875 -3.816406 0.875 -4.890625 C 0.875 -5.960938 1.078125 -6.878906 1.484375 -7.640625 C 1.898438 -8.410156 2.46875 -8.988281 3.1875 -9.375 C 3.90625 -9.769531 4.726562 -9.96875 5.65625 -9.96875 C 7.71875 -9.96875 9.039062 -9.222656 9.625 -7.734375 L 7.9375 -6.515625 L 7.75 -6.515625 C 7.550781 -6.984375 7.289062 -7.328125 6.96875 -7.546875 C 6.644531 -7.773438 6.207031 -7.890625 5.65625 -7.890625 C 4.945312 -7.890625 4.394531 -7.644531 4 -7.15625 C 3.601562 -6.664062 3.40625 -5.910156 3.40625 -4.890625 C 3.40625 -3.878906 3.601562 -3.128906 4 -2.640625 C 4.40625 -2.148438 4.972656 -1.90625 5.703125 -1.90625 C 6.234375 -1.90625 6.679688 -2.046875 7.046875 -2.328125 C 7.421875 -2.617188 7.691406 -3.03125 7.859375 -3.5625 L 8.03125 -3.578125 L 9.78125 -2.625 C 9.539062 -1.800781 9.082031 -1.125 8.40625 -0.59375 C 7.738281 -0.0703125 6.835938 0.1875 5.703125 0.1875 Z M 5.703125 0.1875 "/></g></g></g></svg>