<svg xmlns="http://www.w3.org/2000/svg" xmlns:xlink="http://www.w3.org/1999/xlink" width="50" zoomAndPan="magnify" viewBox="0 0 37.5 37.499999" height="50" preserveAspectRatio="xMidYMid meet" version="1.0"><defs><clipPath id="1219afa080"><path d="M 10.300781 13.425781 L 26.582031 13.425781 L 26.582031 26.007812 L 10.300781 26.007812 Z M 10.300781 13.425781 " clip-rule="nonzero"/></clipPath></defs><path fill="#5f6fff" d="M 33.605469 13.570312 C 31.992188 5.273438 21.882812 5.132812 19.390625 12.890625 C 16.894531 5.132812 6.785156 5.273438 5.171875 13.570312 C 3.707031 21.097656 19.390625 32.976562 19.390625 32.976562 C 19.390625 32.976562 35.070312 21.097656 33.605469 13.570312 Z M 33.605469 13.570312 " fill-opacity="1" fill-rule="nonzero"/><g clip-path="url(#1219afa080)"><path fill="#ffffff" d="M 10.730469 22.6875 C 11.613281 22.6875 12.496094 22.6875 13.382812 22.6875 C 13.535156 22.6875 13.65625 22.585938 13.703125 22.445312 C 14.253906 20.675781 14.808594 18.90625 15.359375 17.136719 C 15.148438 17.136719 14.933594 17.136719 14.722656 17.136719 C 15.382812 18.980469 16.046875 20.824219 16.710938 22.667969 C 16.816406 22.960938 17.265625 23.003906 17.351562 22.667969 C 18.085938 19.753906 18.824219 16.84375 19.5625 13.933594 C 19.347656 13.933594 19.136719 13.933594 18.921875 13.933594 C 19.621094 17.910156 20.324219 21.890625 21.023438 25.871094 C 21.070312 26.152344 21.507812 26.203125 21.628906 25.953125 C 22.160156 24.851562 22.695312 23.75 23.226562 22.652344 C 23.359375 22.378906 22.8125 22.6875 23.171875 22.6875 C 23.523438 22.6875 23.871094 22.6875 24.21875 22.6875 C 24.84375 22.6875 25.472656 22.6875 26.097656 22.6875 C 26.523438 22.6875 26.523438 22.027344 26.097656 22.027344 C 25.066406 22.027344 24.035156 22.027344 23 22.027344 C 22.890625 22.027344 22.765625 22.085938 22.714844 22.191406 C 22.164062 23.332031 21.609375 24.476562 21.054688 25.617188 C 21.257812 25.644531 21.460938 25.671875 21.664062 25.695312 C 20.960938 21.714844 20.261719 17.734375 19.5625 13.753906 C 19.503906 13.425781 19 13.453125 18.921875 13.753906 C 18.183594 16.667969 17.449219 19.578125 16.710938 22.488281 C 16.925781 22.488281 17.136719 22.488281 17.351562 22.488281 C 16.6875 20.648438 16.023438 18.804688 15.359375 16.960938 C 15.25 16.65625 14.824219 16.636719 14.722656 16.960938 C 14.167969 18.730469 13.617188 20.5 13.0625 22.269531 C 13.167969 22.1875 13.277344 22.105469 13.382812 22.027344 C 12.496094 22.027344 11.613281 22.027344 10.730469 22.027344 C 10.300781 22.027344 10.300781 22.6875 10.730469 22.6875 Z M 10.730469 22.6875 " fill-opacity="1" fill-rule="nonzero"/></g></svg>